<svg height='300px' width='300px' stroke="2" fill="#000000" xmlns="http://www.w3.org/2000/svg" xmlns:xlink="http://www.w3.org/1999/xlink" version="1.1" x="0px" y="0px" viewBox="0 0 100 100" enable-background="new 0 0 100 100" xml:space="preserve"><g><path fill="#000000" d="M50,21.507c-4.893,0-8.863,3.982-8.863,8.862v0.028c0.056,3.281,0.783,6.927,2.236,9.843   c1.426,2.917,3.635,5.188,6.626,5.188c2.964,0,5.229-2.271,6.654-5.188c1.454-2.917,2.181-6.562,2.209-9.843v-0.028   C58.863,25.489,54.893,21.507,50,21.507L50,21.507z M50,23.077c4.054,0,7.297,3.253,7.297,7.292   c-0.027,3.057-0.755,6.535-2.041,9.171C53.942,42.175,52.181,43.83,50,43.83s-3.942-1.655-5.229-4.291   c-1.286-2.636-2.041-6.114-2.069-9.171C42.703,26.331,45.946,23.077,50,23.077L50,23.077z M30.625,26.555   c-4.166,0-7.549,3.394-7.549,7.544c0.028,2.776,0.671,5.833,1.873,8.301s3.104,4.403,5.676,4.403c2.544,0,4.445-1.935,5.676-4.403   c1.202-2.468,1.817-5.525,1.873-8.301C38.173,29.948,34.762,26.555,30.625,26.555L30.625,26.555z M69.403,26.555   c-4.138,0-7.549,3.394-7.549,7.544c0.028,2.776,0.671,5.833,1.873,8.301c1.23,2.468,3.132,4.403,5.676,4.403   s4.474-1.935,5.676-4.403s1.846-5.525,1.873-8.301C76.952,29.948,73.569,26.555,69.403,26.555L69.403,26.555z M30.625,28.125   c3.299,0,5.955,2.664,5.955,5.945v0.028c-0.028,2.524-0.643,5.413-1.733,7.6c-1.063,2.159-2.488,3.534-4.222,3.534   c-1.761,0-3.188-1.375-4.278-3.534c-1.063-2.188-1.649-5.076-1.706-7.6v-0.028C24.669,30.79,27.325,28.125,30.625,28.125   L30.625,28.125z M69.403,28.125c3.299,0,5.955,2.664,5.983,5.945v0.028c-0.056,2.524-0.644,5.413-1.706,7.6   c-1.09,2.159-2.544,3.534-4.277,3.534s-3.159-1.375-4.25-3.534c-1.063-2.188-1.677-5.076-1.705-7.6v-0.028   C63.448,30.79,66.104,28.125,69.403,28.125L69.403,28.125z M50,46.719c-3.998,0-7.689,1.402-10.764,3.786   c-2.46-1.823-5.452-2.861-8.611-2.861c-8.947,0-16.132,8.33-16.132,18.454c0,1.121,0.112,2.215,0.28,3.281l0.028,0.308l0.279,0.196   c4.166,2.889,9.59,4.6,15.545,4.6c1.006,0,1.957-0.056,2.936-0.168c4.613,2.636,10.289,4.179,16.44,4.179   c6.123,0,11.799-1.543,16.412-4.179c0.979,0.112,1.984,0.168,2.991,0.168c5.955,0,11.379-1.711,15.545-4.6l0.252-0.196l0.056-0.308   c0.168-1.066,0.252-2.16,0.252-3.281c0-10.124-7.157-18.454-16.104-18.454c-3.188,0-6.15,1.066-8.64,2.888   C57.717,48.121,53.998,46.719,50,46.719L50,46.719z M50,48.289c9.646,0,17.559,9.03,17.559,20.332c0,1.122-0.112,2.188-0.252,3.253   C62.693,74.959,56.654,76.922,50,76.922c-6.626,0-12.666-1.935-17.279-5.02c-0.167-1.094-0.251-2.159-0.251-3.281   C32.47,57.319,40.354,48.289,50,48.289L50,48.289z M30.625,49.243c2.684,0,5.2,0.841,7.353,2.328   c-2.432,2.271-4.361,5.188-5.592,8.554l-0.895-3.449l2.6-2.608c0.419-0.449,0.056-1.347-0.559-1.347h-5.843   c-0.056,0-0.112,0-0.14,0c-0.559,0.112-0.811,0.926-0.419,1.347l2.601,2.608l-2.656,10.012c-0.056,0.252,0,0.532,0.167,0.729   l2.768,3.226c0.224,0.28,0.671,0.364,0.979,0.196c0.056,0.561,0.084,1.094,0.168,1.654l0.056,0.337l0.084,0.056   c-0.224,0-0.447,0.028-0.671,0.028c-5.508,0-10.513-1.599-14.343-4.15c-0.112-0.87-0.224-1.767-0.224-2.664   C16.058,56.702,22.656,49.243,30.625,49.243L30.625,49.243z M69.403,49.243c7.969,0,14.539,7.459,14.539,16.855   c0,0.897-0.084,1.794-0.196,2.664c-3.83,2.552-8.835,4.15-14.343,4.15c-0.252,0-0.476-0.028-0.699-0.028l0.112-0.084l0.056-0.337   c0.084-0.561,0.112-1.121,0.168-1.654c0.308,0.168,0.755,0.084,0.979-0.168l2.768-3.226c0.168-0.196,0.224-0.477,0.168-0.729   l-2.656-10.012l2.572-2.608c0.42-0.449,0.084-1.318-0.531-1.347h-5.843c-0.057,0-0.112,0-0.168,0   c-0.56,0.112-0.811,0.926-0.392,1.347l2.601,2.608l-0.896,3.449c-1.258-3.365-3.159-6.282-5.619-8.554   C64.203,50.084,66.72,49.243,69.403,49.243L69.403,49.243z M45.946,51.711c-0.559,0.111-0.811,0.925-0.419,1.317l3.607,3.618   L45.499,70.22c-0.056,0.225,0.028,0.505,0.196,0.701l3.747,4.318c0.279,0.337,0.867,0.337,1.174,0l3.69-4.318   c0.168-0.196,0.252-0.477,0.195-0.701l-3.578-13.602l3.578-3.59c0.42-0.42,0.028-1.317-0.587-1.317h-7.8   C46.058,51.711,46.002,51.711,45.946,51.711L45.946,51.711z M48.015,53.281h3.971l-1.958,1.991L48.015,53.281L48.015,53.281z    M29.618,54.291h2.013l-1.006,1.037L29.618,54.291L29.618,54.291z M68.396,54.291h2.014l-1.007,1.037L68.396,54.291L68.396,54.291z    M30.625,59.507l0.895,3.449c-0.391,1.795-0.615,3.674-0.643,5.609l-0.251,0.336l-1.929-2.215L30.625,59.507L30.625,59.507z    M50.028,59.507l2.824,10.713l-2.824,3.281l-2.88-3.281L50.028,59.507L50.028,59.507z M69.403,59.507l1.93,7.18l-1.93,2.215   l-0.279-0.336c0-1.936-0.224-3.814-0.644-5.609L69.403,59.507L69.403,59.507z"></path></g></svg>